<svg xmlns="http://www.w3.org/2000/svg" width="112" height="19" fill="none"><g fill="#42A8DF" clip-path="url(#a)"><path d="M8.771.99c.33-.784 1.454-.784 1.785 0l1.948 4.628c.139.33.454.556.815.585l5.056.4c.857.068 1.204 1.124.552 1.677l-3.853 3.26a.948.948 0 0 0-.311.947l1.177 4.874c.2.826-.71 1.48-1.444 1.037l-4.329-2.613a.976.976 0 0 0-1.007 0l-4.33 2.613c-.733.442-1.642-.21-1.443-1.037l1.177-4.875a.948.948 0 0 0-.311-.946L.4 8.28C-.253 7.727.095 6.67.951 6.603l5.057-.4a.965.965 0 0 0 .815-.585L8.771.99ZM31.817.99c.33-.784 1.454-.784 1.785 0l1.948 4.628c.139.33.454.556.815.585l5.056.4c.857.068 1.204 1.124.552 1.677l-3.853 3.26a.948.948 0 0 0-.311.947l1.177 4.874c.2.826-.71 1.48-1.444 1.037l-4.329-2.613a.976.976 0 0 0-1.007 0l-4.33 2.613c-.733.442-1.643-.21-1.443-1.037l1.177-4.875a.948.948 0 0 0-.311-.946l-3.853-3.26c-.653-.553-.305-1.609.551-1.677l5.057-.4a.965.965 0 0 0 .815-.585L31.817.99ZM54.863.99c.33-.783 1.454-.783 1.784 0l1.949 4.628c.139.33.453.556.815.585l5.056.4c.857.068 1.204 1.125.552 1.677l-3.853 3.26a.948.948 0 0 0-.311.947l1.177 4.874c.2.826-.71 1.48-1.444 1.037l-4.33-2.613a.976.976 0 0 0-1.006 0l-4.33 2.613c-.733.442-1.643-.21-1.443-1.037l1.177-4.874a.948.948 0 0 0-.312-.947l-3.852-3.26c-.653-.552-.305-1.609.551-1.677l5.057-.4a.965.965 0 0 0 .815-.585L54.863.991ZM77.909.99c.33-.784 1.454-.784 1.784 0l1.948 4.628c.14.33.454.556.815.585l5.057.4c.856.068 1.204 1.124.551 1.677l-3.853 3.26a.948.948 0 0 0-.31.947l1.176 4.874c.2.826-.71 1.48-1.444 1.037l-4.329-2.613a.976.976 0 0 0-1.007 0l-4.33 2.613c-.733.442-1.642-.21-1.443-1.037l1.177-4.875a.948.948 0 0 0-.311-.946l-3.853-3.26c-.653-.553-.305-1.609.552-1.677l5.056-.4a.965.965 0 0 0 .815-.585L77.91.99ZM100.954.99c.33-.784 1.454-.784 1.784 0l1.948 4.628c.14.33.454.556.815.585l5.057.4c.857.068 1.204 1.124.551 1.677l-3.852 3.26a.949.949 0 0 0-.312.947l1.178 4.874c.199.826-.711 1.48-1.444 1.037l-4.329-2.613a.977.977 0 0 0-1.008 0l-4.329 2.613c-.733.442-1.643-.21-1.443-1.037l1.177-4.875a.948.948 0 0 0-.312-.946l-3.852-3.26c-.653-.553-.306-1.609.551-1.677l5.057-.4a.965.965 0 0 0 .815-.585L100.954.99Z"/></g><defs><clipPath id="a"><path fill="#fff" d="M.061.402h111.388V18.54H.061z"/></clipPath></defs></svg>